<svg height="480pt" viewBox="0 -16 480 480" width="480pt" xmlns="http://www.w3.org/2000/svg"><path d="m328 328-40 32h-128l-24-40zm0 0" fill="#035946"/><path d="m160 352h136v24h-136zm0 0" fill="#333"/><path d="m32 328h-24v-144l16-104h256l56 104h112v144" fill="#557c3e"/><path d="m312 328h-136v-144h160v120zm0 0" fill="#539074"/><path d="m72 0h152c13.253906 0 24 10.746094 24 24v24c0 13.253906-10.746094 24-24 24h-152c-13.253906 0-24-10.746094-24-24v-24c0-13.253906 10.746094-24 24-24zm0 0" fill="#333"/><g fill="#1a1a1a"><path d="m88 72h-16v-32c0-4.417969 3.582031-8 8-8h16v-32h16v40c0 4.417969-3.582031 8-8 8h-16zm0 0"/><path d="m144 72h-16v-32c0-4.417969 3.582031-8 8-8h16v-32h16v40c0 4.417969-3.582031 8-8 8h-16zm0 0"/><path d="m200 72h-16v-32c0-4.417969 3.582031-8 8-8h16v-32h16v40c0 4.417969-3.582031 8-8 8h-16zm0 0"/></g><path d="m392 304v-24h80v48h-56" fill="#ccc"/><path d="m336 184h-160v-80h116.921875zm0 0" fill="#92d7e7"/><path d="m144 184h-108.664062l12.664062-80h96zm0 0" fill="#92d7e7"/><path d="m200 216h24v16h-24zm0 0" fill="#29485a"/><path d="m408 208h40v32h-40zm0 0" fill="#f2f2f2"/><path d="m168 368c0 39.765625-32.234375 72-72 72s-72-32.234375-72-72 32.234375-72 72-72 72 32.234375 72 72zm0 0" fill="#4d4d4d"/><path d="m432 368c0 39.765625-32.234375 72-72 72s-72-32.234375-72-72 32.234375-72 72-72 72 32.234375 72 72zm0 0" fill="#4d4d4d"/><path d="m400 368c0 22.089844-17.910156 40-40 40s-40-17.910156-40-40 17.910156-40 40-40 40 17.910156 40 40zm0 0" fill="#ccc"/><path d="m136 368c0 22.089844-17.910156 40-40 40s-40-17.910156-40-40 17.910156-40 40-40 40 17.910156 40 40zm0 0" fill="#ccc"/><path d="m96 72h112v8h-112zm0 0" fill="#29485a"/><path d="m0 432h480v16h-480zm0 0" fill="#29485a"/></svg>