<svg height="512" viewBox="0 0 64 64" width="512" xmlns="http://www.w3.org/2000/svg"><g id="flat"><path d="m37 44a17 17 0 1 1 -27.36-13.48 16.987 16.987 0 0 1 17.13-2.11 16.756 16.756 0 0 1 3.59 2.11 16.969 16.969 0 0 1 6.64 13.48z" fill="#55b56a"/><path d="m24 52.3h-8s-8.67-1-6-13a16.5 16.5 0 0 0 -.36-8.78 16.756 16.756 0 0 1 3.59-2.11 18.642 18.642 0 0 1 .77 10.89c-2 9 3 9 3 9h6s5 0 3-9a18.642 18.642 0 0 1 .77-10.89 16.756 16.756 0 0 1 3.59 2.11 16.5 16.5 0 0 0 -.36 8.78c2.67 12-6 13-6 13z" fill="#c8d952"/><path d="m61 20a16.962 16.962 0 0 1 -1.18 6.23 16.6 16.6 0 0 1 -2.44 4.25 16.989 16.989 0 0 1 -26.76 0 16.6 16.6 0 0 1 -2.44-4.25 17.022 17.022 0 0 1 .01-12.48 16.34 16.34 0 0 1 2.45-4.25 16.98 16.98 0 0 1 26.72 0 16.34 16.34 0 0 1 2.45 4.25 16.831 16.831 0 0 1 1.19 6.25z" fill="#c8d952"/><path d="m39.89 15.99v8s-.79 6.76-9.27 6.49a16.6 16.6 0 0 1 -2.44-4.25c7.7 1.26 7.71-3.24 7.71-3.24v-6s-.01-4.5-7.7-3.24a16.34 16.34 0 0 1 2.45-4.25c8.46-.27 9.25 6.49 9.25 6.49z" fill="#55b56a"/><path d="m59.82 26.23a16.6 16.6 0 0 1 -2.44 4.25c-8.48.27-9.27-6.49-9.27-6.49v-8s.79-6.76 9.25-6.49a16.34 16.34 0 0 1 2.45 4.25c-7.69-1.26-7.7 3.24-7.7 3.24v6s.01 4.5 7.71 3.24z" fill="#55b56a"/><path d="m41 7h2v2h-2z" fill="#8ec13f"/><path d="m44 10h2v2h-2z" fill="#8ec13f"/><path d="m17 42.302h2v2h-2z" fill="#c8d952"/></g></svg>